<svg xmlns="http://www.w3.org/2000/svg" width="116" height="22" viewBox="0 0 116 22">
    <path fill="#FFF" fill-rule="evenodd" d="M2.465 5.76c0 .82.215 1.49.645 2.01.43.52.985.905 1.665 1.155s1.43.465 2.25.645c.82.18 1.64.38 2.46.6.82.22 1.57.505 2.25.855.68.35 1.235.885 1.665 1.605.43.72.645 1.61.645 2.67 0 1.58-.59 2.96-1.77 4.14-1.18 1.18-2.795 1.77-4.845 1.77s-3.715-.46-4.995-1.38c-1.28-.92-1.92-2.16-1.92-3.72h2.22c.08.96.49 1.755 1.23 2.385.74.63 1.845.945 3.315.945s2.64-.38 3.51-1.14c.87-.76 1.305-1.705 1.305-2.835s-.4-1.98-1.2-2.55c-.8-.57-1.765-.965-2.895-1.185a58.97 58.97 0 0 1-3.39-.765A5.97 5.97 0 0 1 1.715 9.27c-.8-.84-1.2-2.06-1.2-3.66S1.11 2.69 2.3 1.65 5.06.09 7.01.09c1.95 0 3.485.45 4.605 1.35 1.12.9 1.8 2.1 2.04 3.6h-2.37c-.08-.84-.5-1.575-1.26-2.205-.76-.63-1.8-.945-3.12-.945s-2.39.33-3.21.99c-.82.66-1.23 1.62-1.23 2.88zM33.055 21l-1.74-4.83h-9.66L19.885 21h-2.1L25.405.3h2.16l7.59 20.7h-2.1zm-10.8-6.51h8.43l-4.2-11.58-4.23 11.58zM46.095 21L37.965.3h2.22l6.9 18.33L54.045.3h2.22L48.135 21h-2.04zm31.49-10.35c0-2.62-.79-4.73-2.37-6.33-1.58-1.6-3.58-2.4-6-2.4s-4.425.8-6.015 2.4c-1.59 1.6-2.385 3.71-2.385 6.33s.795 4.735 2.385 6.345c1.59 1.61 3.59 2.415 6 2.415s4.41-.805 6-2.415c1.59-1.61 2.385-3.725 2.385-6.345zm-18.9 0c0-3.06 1.015-5.585 3.045-7.575C63.76 1.085 66.26.09 69.23.09c2.97 0 5.465.995 7.485 2.985 2.02 1.99 3.03 4.515 3.03 7.575 0 3.06-1.01 5.585-3.03 7.575-2.02 1.99-4.515 2.985-7.485 2.985-2.97 0-5.47-.995-7.5-2.985-2.03-1.99-3.045-4.515-3.045-7.575zm26.93 1.68V21h-2.1V.3h6.33c2.32 0 4.08.555 5.28 1.665 1.2 1.11 1.8 2.515 1.8 4.215 0 1.7-.47 3.075-1.41 4.125-.94 1.05-2.34 1.695-4.2 1.935l5.88 8.76h-2.73l-5.61-8.67h-3.24zm0-10.32v8.61h4.23c3.3 0 4.95-1.435 4.95-4.305 0-2.87-1.65-4.305-4.95-4.305h-4.23zM108.885 21h-2.1v-8.16L100.155.3h2.25l5.4 10.62 5.4-10.62h2.28l-6.6 12.54V21z"/>
</svg>
